<svg xmlns="http://www.w3.org/2000/svg" viewBox="0 0 1981.44 1200.77"><defs><style>.cls-1{fill:#44d4f4;}.cls-2{fill:#240448;}.cls-3{fill:#fc346c;}.cls-4{fill:#fccc6c;}.cls-5{fill:#fff;}.cls-6{fill:#dce5f7;}.cls-7{fill:#240444;}</style></defs><g id="Capa_2" data-name="Capa 2"><g id="_ÎÓÈ_1" data-name="—ÎÓÈ_1"><path class="cls-1" d="M1340.4,1146.33c22.43,12.57,35.37,32.11,28.91,43.63s-29.88,10.68-52.31-1.89c-15.51-8.7-23.4-26.25-26.79-36.24a7.28,7.28,0,0,1,5.3-9.45C1305.8,1140.06,1324.88,1137.63,1340.4,1146.33Z"/><path class="cls-1" d="M1386.71,1184.7c-12.66,12.83-28.28,18-34.87,11.46s-1.68-22.19,11-35c8.76-8.88,22.09-11,29.47-11.39a5.1,5.1,0,0,1,5.41,5.33C1397.37,1162.46,1395.47,1175.82,1386.71,1184.7Z"/><path class="cls-2" d="M1341,1161.07a2,2,0,0,1-2-1.61c-3.22-15.63-7.14-31.55-11.65-47.3a2,2,0,0,1,3.86-1.1c4.54,15.84,8.48,31.86,11.72,47.59a2,2,0,0,1-1.56,2.38A1.9,1.9,0,0,1,1341,1161.07Z"/><path class="cls-2" d="M1323.46,1094.36a2,2,0,0,1-1.92-1.4c-18.86-59.12-40.3-97.85-40.51-98.24a2,2,0,1,1,3.5-2c.22.38,21.85,39.44,40.84,99a2,2,0,0,1-1.3,2.53A2.15,2.15,0,0,1,1323.46,1094.36Z"/><circle class="cls-3" cx="1292.89" cy="1022.48" r="43.51" transform="translate(167.26 2226.63) rotate(-85.27)"/><path class="cls-1" d="M1368,1159.47l-.24,0a2,2,0,0,1-1.76-2.22c5.43-47.11,14-87.7,25.62-120.64a2,2,0,1,1,3.79,1.33c-11.47,32.66-20,72.95-25.42,119.77A2,2,0,0,1,1368,1159.47Z"/><polygon class="cls-4" points="1430.72 1046.49 1399.95 1015.72 1357.93 1026.98 1346.67 1069.01 1377.43 1099.77 1419.46 1088.51 1430.72 1046.49"/><path class="cls-5" d="M1292.89,1027.52c-22.45,0-46.3-5.37-46.3-15.32a1.69,1.69,0,0,1,3.38,0c0,5.65,17.63,11.94,42.92,11.94s42.91-6.29,42.91-11.94a1.7,1.7,0,0,1,3.39,0C1339.19,1022.15,1315.33,1027.52,1292.89,1027.52Z"/><path class="cls-2" d="M1292.89,1027.84c-22.6,0-46.62-5.48-46.62-15.64a2,2,0,0,1,4,0c0,4.85,16.21,11.62,42.6,11.62s42.6-6.77,42.6-11.62a2,2,0,1,1,4,0C1339.5,1022.36,1315.49,1027.84,1292.89,1027.84Z"/><path class="cls-5" d="M1328.94,1039.12a40.09,40.09,0,0,1-8.86-1.16c-8.75-2-19.32-6.46-29.79-12.49-19.44-11.21-37.42-27.78-32.45-36.4a1.69,1.69,0,0,1,2.93,1.69c-2.82,4.89,9.31,19.14,31.21,31.78,10.18,5.87,20.43,10.18,28.86,12.12,7.45,1.72,12.93,1.33,14.28-1a1.69,1.69,0,0,1,2.93,1.69C1336.6,1037.85,1333.5,1039.12,1328.94,1039.12Z"/><path class="cls-2" d="M1328.93,1039.44a40.66,40.66,0,0,1-8.93-1.17c-8.77-2-19.38-6.48-29.86-12.53-19.58-11.29-37.65-28-32.57-36.83a2,2,0,0,1,3.48,2c-2.43,4.2,8.23,18.16,31.09,31.34,10.16,5.86,20.37,10.15,28.77,12.09,8.74,2,12.93.88,13.94-.86a2,2,0,1,1,3.48,2C1336.82,1038.11,1333.62,1039.44,1328.93,1039.44Z"/><path class="cls-5" d="M1346.67,1070.7a1.7,1.7,0,0,1-.44-3.33l84-22.52a1.69,1.69,0,0,1,.88,3.27l-84.05,22.52A1.72,1.72,0,0,1,1346.67,1070.7Z"/><path class="cls-5" d="M1388.69,1059.44a1.68,1.68,0,0,1-1.19-.5l-30.77-30.76a1.69,1.69,0,0,1,2.4-2.39l30.76,30.76a1.7,1.7,0,0,1-1.2,2.89Z"/><path class="cls-2" d="M1320.54,95.67a2.63,2.63,0,0,1-1.55-.5A494.59,494.59,0,0,0,1033.86,5.44c-7.46,0-15,.17-22.45.49a2.72,2.72,0,1,1-.24-5.43c7.52-.33,15.15-.5,22.69-.5A499.91,499.91,0,0,1,1322.1,90.72a2.72,2.72,0,0,1-1.56,5Z"/><path class="cls-2" d="M1033.86,1006.08A503.09,503.09,0,0,1,949.89,7a2.72,2.72,0,1,1,.91,5.36C710.59,52.7,536.26,259.07,536.26,503c0,274.38,223.22,497.61,497.6,497.61a2.72,2.72,0,1,1,0,5.43Z"/><path class="cls-2" d="M1454.5,776.76a2.68,2.68,0,0,1-1.47-.44,2.72,2.72,0,0,1-.81-3.76,496.83,496.83,0,0,0,45.89-90,2.72,2.72,0,0,1,5.07,2,502.56,502.56,0,0,1-46.39,91A2.71,2.71,0,0,1,1454.5,776.76Z"/><path class="cls-2" d="M1522.42,614.11a2.44,2.44,0,0,1-.59-.07,2.71,2.71,0,0,1-2.06-3.24A500.87,500.87,0,0,0,1531.46,503a495.4,495.4,0,0,0-34.24-181.78,2.72,2.72,0,0,1,5.06-2A500.85,500.85,0,0,1,1536.9,503,505.9,505.9,0,0,1,1525.07,612,2.72,2.72,0,0,1,1522.42,614.11Z"/><path class="cls-4" d="M260.78,899.75a6.48,6.48,0,0,1-6.48-6.48V818a38.07,38.07,0,0,1,38-38,30.17,30.17,0,0,1,13.74,3.32,6.48,6.48,0,0,1-5.93,11.52,16.88,16.88,0,0,0-7.81-1.88A25.09,25.09,0,0,0,267.26,818v75.27A6.48,6.48,0,0,1,260.78,899.75Z"/><path class="cls-4" d="M339.19,899.75a6.48,6.48,0,0,1-6.47-6.48V780h38a30.17,30.17,0,0,1,13.74,3.32,6.48,6.48,0,1,1-5.93,11.52,16.85,16.85,0,0,0-7.81-1.88H345.67V893.27A6.48,6.48,0,0,1,339.19,899.75Z"/><polygon class="cls-4" points="338.75 1053.63 338.96 1054.91 341.6 1071.37 361.52 1195.42 486.99 1195.42 461.07 1033.98 338.75 1053.63"/><polygon class="cls-4" points="189.4 1195.42 315.91 1195.42 341.6 1071.37 344.76 1056.12 338.96 1054.91 223.44 1031.01 189.4 1195.42"/><path class="cls-1" d="M550.48,1048h-.28a44.87,44.87,0,0,1-37.31-20.36L461.61,949a44.88,44.88,0,0,1,75.19-49L551,921.71,662.46,755.36a44.88,44.88,0,1,1,74.57,50L587.77,1028.08A44.88,44.88,0,0,1,550.48,1048Z"/><rect class="cls-2" x="440.04" y="876.4" width="89.76" height="52.3" transform="matrix(0.84, -0.55, 0.55, 0.84, -414.26, 411.41)"/><path class="cls-2" d="M455.23,967a14.37,14.37,0,0,1-7.75-26.47l78.32-50.06a14.36,14.36,0,1,1,15.47,24.2L463,964.72A14.28,14.28,0,0,1,455.23,967Z"/><path class="cls-2" d="M470.68,925.53A44.85,44.85,0,0,1,433,905.16l-22.15-34a44.88,44.88,0,1,1,75.18-49l22.16,34a44.89,44.89,0,0,1-37.55,69.4Z"/><path class="cls-4" d="M391.54,1104.25H294a53.86,53.86,0,0,1,0-107.71h97.58a53.86,53.86,0,1,1,0,107.71Z"/><path class="cls-2" d="M225.48,1037.22H457.57l31.95-179.34a54.79,54.79,0,0,0-53.93-64.4H247.46a54.79,54.79,0,0,0-53.94,64.4Z"/><polygon class="cls-4" points="220.46 1063.52 462.59 1063.52 476.42 932.5 393.27 880.65 311.58 880.65 206.63 932.5 220.46 1063.52"/><path class="cls-1" d="M335.24,819.11a27.58,27.58,0,0,0,30.89-23.87l2.53-19.63L370,765.5l4.45-34.72,2.12-16.49a27.6,27.6,0,0,0-23.86-30.9,28.35,28.35,0,0,0-3.56-.22,27.57,27.57,0,0,0-27.35,24.09L318.59,732l-4.31,33.53-2.91,22.71A27.61,27.61,0,0,0,335.24,819.11Z"/><path class="cls-2" d="M327.38,732.49c5.2,24,16.87,41.23,41.28,43.12L370,765.5l4.45-34.72,2.12-16.49a27.6,27.6,0,0,0-23.86-30.9,28.35,28.35,0,0,0-3.56-.22,27.57,27.57,0,0,0-27.35,24.09Z"/><path class="cls-1" d="M383.57,761.73h0a34.06,34.06,0,0,0,25.49-40.88l-6.38-27.51a44.88,44.88,0,0,0-53.86-33.59h0a44.88,44.88,0,0,0-33.59,53.86l1.49,6.43A55.71,55.71,0,0,0,383.57,761.73Z"/><path class="cls-1" d="M399.53,694.3l22.7,26.23a4.75,4.75,0,0,1-3.3,7.85l-19.52,1.24Z"/><circle class="cls-4" cx="402.01" cy="656.38" r="27.92" transform="translate(-266.97 275.7) rotate(-28.87)"/><circle class="cls-4" cx="364.54" cy="655.97" r="19.74" transform="matrix(0.29, -0.96, 0.96, 0.29, -369.47, 812.22)"/><path class="cls-4" d="M326.77,684.3h72.76a17.58,17.58,0,0,0,17.59-17.59h0a17.59,17.59,0,0,0-17.59-17.59H326.77a17.59,17.59,0,0,0-17.59,17.59h0A17.58,17.58,0,0,0,326.77,684.3Z"/><polygon class="cls-4" points="309.18 719.2 340.59 719.2 354.19 666.56 309.18 666.56 309.18 719.2"/><circle class="cls-1" cx="324.74" cy="713.7" r="21.18" transform="translate(-153.97 92.69) rotate(-13.16)"/><polygon class="cls-1" points="365.85 1040.28 360.75 1086.75 344.45 1086.75 365.85 1040.28"/><path class="cls-4" d="M360.75,1089.69h-16.3a2.94,2.94,0,1,1,0-5.88h13.66l4.81-43.85a2.95,2.95,0,0,1,5.86.64l-5.11,46.47A2.94,2.94,0,0,1,360.75,1089.69Z"/><path class="cls-1" d="M463.09,1058.73h0Z"/><path class="cls-2" d="M463.09,1061.68H408a2.95,2.95,0,0,1,0-5.89h55.14a2.95,2.95,0,1,1,0,5.89Z"/><circle class="cls-5" cx="387.29" cy="958.41" r="35.33" transform="translate(-227.38 127.31) rotate(-14.48)"/><circle class="cls-5" cx="315.49" cy="958.41" r="35.33" transform="translate(-214.87 100.04) rotate(-13.49)"/><rect class="cls-2" x="324.37" y="927.28" width="60.72" height="60.72" transform="translate(1282.72 1383.96) rotate(135)"/><path class="cls-1" d="M726.91,805.71a15.9,15.9,0,0,1-13.16-24.8l36.82-54.5a15.9,15.9,0,1,1,26.35,17.8l-36.82,54.5A15.87,15.87,0,0,1,726.91,805.71Z"/><path class="cls-1" d="M710.16,778.25a15.91,15.91,0,0,1-13.47-24.33L737.29,689a15.9,15.9,0,0,1,27,16.86l-40.59,64.92A15.88,15.88,0,0,1,710.16,778.25Z"/><path class="cls-1" d="M687.1,763.84a15.91,15.91,0,0,1-14.05-23.32l29.21-55.41a15.9,15.9,0,1,1,28.13,14.83l-29.21,55.41A15.91,15.91,0,0,1,687.1,763.84Z"/><path class="cls-1" d="M676.7,779.83a15.89,15.89,0,0,1-12.92-6.62l-16.31-22.7a15.9,15.9,0,0,1,4.95-23l24.44-14.14a15.9,15.9,0,0,1,15.92,27.53l-9.24,5.35,6.06,8.44a15.9,15.9,0,0,1-12.9,25.18Z"/><path class="cls-1" d="M701.72,781.57a2.68,2.68,0,0,1-.62-.07,2.94,2.94,0,0,1-2.26-3.49c0-.14,1.54-7.87-3-14.53-3.31-4.92-9.1-8.16-17.19-9.64a2.94,2.94,0,0,1-1.22-5.26l12.39-9.16A13.2,13.2,0,0,0,682,715.61h-1.91a2.95,2.95,0,0,1,0-5.89H682a19.09,19.09,0,0,1,11.35,34.43l-7.4,5.47c6.61,2.19,11.59,5.76,14.86,10.65a26.71,26.71,0,0,1,3.77,19A3,3,0,0,1,701.72,781.57Z"/><path class="cls-4" d="M400.78,899.75H339.19a6.48,6.48,0,0,1,0-13h48.64V810a17.05,17.05,0,0,0-9.29-15.21,6.48,6.48,0,0,1,5.93-11.52A30,30,0,0,1,400.78,810Z"/><path class="cls-4" d="M315.89,899.75a6.48,6.48,0,0,1-6.47-6.48V810a17.05,17.05,0,0,0-9.29-15.21,6.48,6.48,0,1,1,5.93-11.52A30,30,0,0,1,322.37,810v83.24A6.48,6.48,0,0,1,315.89,899.75Z"/><path class="cls-1" d="M448.49,1124.44a45,45,0,0,1-13.4-2l-274.54-85.81a44.88,44.88,0,0,1-28.87-58l24.43-68.22a44.88,44.88,0,0,1,84.51,30.25L232,964.86l229.92,71.86a44.88,44.88,0,0,1-13.38,87.72Z"/><rect class="cls-2" x="181.23" y="856.1" width="52.3" height="89.76" transform="translate(-709.86 785.03) rotate(-69.83)"/><path class="cls-2" d="M216.39,921.32A44.92,44.92,0,0,1,174.27,861l14-38.08a44.88,44.88,0,0,1,84.25,31l-14,38.07A44.9,44.9,0,0,1,216.39,921.32Z"/><path class="cls-2" d="M240.17,956.19a14.4,14.4,0,0,1-5-.9l-83.82-31.16a14.37,14.37,0,0,1,10-26.93l83.81,31.16a14.37,14.37,0,0,1-5,27.83Z"/><path class="cls-1" d="M450.59,1170.53a15.89,15.89,0,0,1-13.65-7.74l-33.8-56.42A15.9,15.9,0,0,1,430.42,1090l33.8,56.42a15.92,15.92,0,0,1-13.63,24.08Z"/><path class="cls-1" d="M490.4,1174.81a15.88,15.88,0,0,1-13.36-7.26l-41.64-64.26A15.9,15.9,0,0,1,462.09,1086l41.64,64.26a15.91,15.91,0,0,1-13.33,24.55Z"/><path class="cls-1" d="M509.42,1145.68a15.87,15.87,0,0,1-12.68-6.3l-37.84-49.92a15.9,15.9,0,1,1,25.34-19.21l37.84,49.92a15.91,15.91,0,0,1-12.66,25.51Z"/><path class="cls-1" d="M502.39,1092.47a15.76,15.76,0,0,1-7-1.63L459.05,1073a15.9,15.9,0,1,1,14-28.55l36.35,17.83a15.9,15.9,0,0,1-7,30.18Z"/><path class="cls-6" d="M1809.17,404.22c-5.49,2.58-9.27,7.35-14.67,10.09-28,14.19-26.4-37-26.29-51.82.25-31.15-1.1-71.18-39.84-78.12-24.7-4.42-48.36,12.12-54.39,36.5-7.55,30.52,4.57,117-52.29,105.17-15.14-3.14-26.42-15.6-35.64-28-11.68-15.72-23.1-33.26-43.77-37-31.33-5.65-63,12.44-84.43,33.86-14.27,14.24-25.47,32.54-32.65,51.38a3.18,3.18,0,0,1-.14.37l60.53-.07q40.11,0,80.23-.13c22.81,0,282.82-.38,282.82-.2C1847.05,427,1836.38,391.41,1809.17,404.22Z"/><path class="cls-6" d="M554.09,188.8s-213.7-.1-213.93,0H289a43.76,43.76,0,0,1-.57-10h0c0-.27,0-.54.05-.81s0-.45,0-.52a91.41,91.41,0,0,1,2.95-13.19A71.56,71.56,0,0,1,299.21,147a46.74,46.74,0,0,1,15.94-15.81,63.34,63.34,0,0,1,21-7.67c12.13-2.09,24.7-.28,35.31,6.94,6.38,4.35,12.28,11.06,20.32,12.1,12.29,1.6,15.53-11.93,16.53-21.3C411,96,413.09,56.68,443.86,49.42a17.6,17.6,0,0,1,13.94,2.22c7.65,4.81,12.49,15,15.26,23.38,4.46,13.52,6.91,28.17,12.48,41.26,4.13,9.69,12.32,15.57,23.08,14.13a25.8,25.8,0,0,1,10.43.75c7.66,2.14,14.38,7.56,19.44,14a52.19,52.19,0,0,1,4.76,7.21C549.16,163.15,551.68,176.74,554.09,188.8Z"/><path class="cls-2" d="M578.68,1200.77h-222a2.72,2.72,0,1,1,0-5.44h222a2.72,2.72,0,1,1,0,5.44Z"/><path class="cls-2" d="M1978.72,1200.77H1475.83a2.72,2.72,0,1,1,0-5.44h502.89a2.72,2.72,0,0,1,0,5.44Z"/><path class="cls-2" d="M1436.21,1200.77H1305.72a2.72,2.72,0,0,1,0-5.44h130.49a2.72,2.72,0,1,1,0,5.44Z"/><path class="cls-2" d="M1662,574.32c-9.36,0-18.48-4.19-21.74-13.23a22.66,22.66,0,0,1-1.17-5.08,28.1,28.1,0,0,1-10.46-7.79,25.12,25.12,0,0,1-6.2-13.47,2.72,2.72,0,0,1,5.42-.49,19.86,19.86,0,0,0,4.9,10.42,24.92,24.92,0,0,0,6.34,5.3,26.89,26.89,0,0,1,.42-2.77c.84-4.25,2.5-7.15,5.07-8.85a9.07,9.07,0,0,1,13.9,9.35,11,11,0,0,1-3.48,5.83,13.84,13.84,0,0,1-10.18,3.79,16.27,16.27,0,0,0,.56,1.91c3.6,10,16.48,11,24.48,8.44l.81-.27a20.79,20.79,0,0,0,6-3.28,2.72,2.72,0,0,1,3.4,4.25,26.27,26.27,0,0,1-7.56,4.15l-1,.34A31.7,31.7,0,0,1,1662,574.32Zm-17.61-22.48.57,0a8.31,8.31,0,0,0,6.36-2.35,5.75,5.75,0,0,0,1.83-2.91,3.63,3.63,0,0,0-5.56-3.74c-1.29.85-2.21,2.66-2.75,5.38A25.07,25.07,0,0,0,1644.36,551.84Z"/><path class="cls-2" d="M186.4,652.07a2.72,2.72,0,0,1-.78-5.33c4.51-1.34,14.64-4.71,22.24-9.92a34.82,34.82,0,0,1-10.08-7.61c-3.48-3.79-4.87-7.51-4.12-11.06.65-3.14,3-5.89,6.72-7.73a16.61,16.61,0,0,1,14.57-.11,13.64,13.64,0,0,1,7.48,10c1,5.51-.76,10.28-4.06,14.35a26.22,26.22,0,0,0,8.66,0A22,22,0,0,0,243.89,621a2.72,2.72,0,1,1,5,2.14C245,632.38,237.52,638.35,228,640a31.87,31.87,0,0,1-14.16-.84c-8.13,6.64-19.88,10.81-26.62,12.81A2.53,2.53,0,0,1,186.4,652.07Zm21.44-38a11.28,11.28,0,0,0-5,1.17c-1,.5-3.41,1.9-3.84,4s1.28,4.6,2.81,6.27A29.53,29.53,0,0,0,212.56,633c3.36-3.36,5.34-7.29,4.53-11.73a8.26,8.26,0,0,0-4.57-6.08A10.56,10.56,0,0,0,207.84,614.11Z"/><path class="cls-2" d="M329.26,1200.77H2.72a2.72,2.72,0,1,1,0-5.44H329.26a2.72,2.72,0,1,1,0,5.44Z"/><circle class="cls-3" cx="983.05" cy="538.28" r="500.32"/><path class="cls-5" d="M983.05,963.68a424.13,424.13,0,1,1,165.6-33.44A422.72,422.72,0,0,1,983.05,963.68Zm0-800.81c-207,0-375.4,168.41-375.4,375.41s168.4,375.4,375.4,375.4,375.41-168.41,375.41-375.4S1190.05,162.87,983.05,162.87Z"/><path class="cls-5" d="M1182.86,551.15c-10.87-4.47-23.22-1.65-31.66,6.31-11.6,10.94-13.28,27.7-18.8,41.83-3.17,8.11-14.53,15.17-19.62,4.05a15.72,15.72,0,0,1-.61-1.53V356a26.08,26.08,0,0,0-52.16,0V526h-23V285a26.08,26.08,0,0,0-52.15,0V526H962V325.72a26.08,26.08,0,0,0-52.16,0V526H886.85V356a26.08,26.08,0,0,0-52.15,0V575a26.38,26.38,0,0,0,.52,5.21V682.73A101.44,101.44,0,0,0,936.66,784.17h74.59c42.54,0,80.63-25.13,109.34-54.62,38.8-39.85,57.47-90.26,78.11-140.36A29.14,29.14,0,0,0,1182.86,551.15Z"/><path class="cls-4" d="M1633.56,929.42a38.76,38.76,0,1,1-71.41-30.18c8.33-19.72,67.49-48.94,67.49-48.94C1646.16,863.91,1641.89,909.7,1633.56,929.42Z"/><path class="cls-1" d="M1870.81,1010.16a39.27,39.27,0,0,1-17.27-4l-150.43-73.41a39.46,39.46,0,1,1,34.6-70.92l150.44,73.41a39.46,39.46,0,0,1-17.34,74.92Z"/><path class="cls-1" d="M1703.11,932.75l8,3.9,68.17,33.26,74.28,36.25a39.45,39.45,0,0,0,34.61-70.91l-150.44-73.42a39.46,39.46,0,1,0-34.6,70.92Z"/><path class="cls-2" d="M1711.09,936.65l60.55,29.54c17.67-50.06-25.47-84.21-25.47-84.21Z"/><path class="cls-4" d="M1572.4,1096.21h203.89L1742,967.36l8.07-27.08c7.24-24.3,4.06-50.71-9.51-72.12-.46-.74-.94-1.47-1.42-2.19-15.26-22.71-38.73-37.09-64.79-37.09-21.31,0-40.87,9.6-55.63,25.5a93.41,93.41,0,0,0-8.45,10.57,108.6,108.6,0,0,0-18.39,52.72Z"/><path class="cls-2" d="M1810.86,1127.66c-2.67-34.86-12.77-67.93-43.94-95.92-49.62,22.72-95.76,12.28-193-4.21L1558.26,1141Z"/><path class="cls-3" d="M1681.07,1046.68c-34.1,0-73-3.67-116.31-11a8.25,8.25,0,0,1,2.76-16.26c79.08,13.41,142.35,14.36,188,2.81a8.25,8.25,0,0,1,4,16C1737.22,1043.86,1711,1046.68,1681.07,1046.68Z"/><path class="cls-2" d="M1654.66,1069.46l3.9,20.42,1.2,6.33,7.44,39,2.7,14.13,8.75,45.87h124.93s4-23.29,6.81-35.41c2.32-10.15,4.49-20.49,5.51-28.5.63-4.89.84-8.92.39-11.48l-6.41-2-2.15-.69-9.13-2.83L1742,1096.69l-1.55-.48-21.35-6.65-19.52-6.08-10-3.12-.82-.25Z"/><polygon class="cls-2" points="1551.52 1195.22 1699 1195.22 1705.02 1167.29 1712.44 1132.84 1714.59 1122.82 1713.24 1132.8 1714.6 1122.78 1718.22 1096.21 1719.13 1089.56 1721.86 1069.46 1688.82 1080.11 1687.49 1080.54 1658.56 1089.88 1638.88 1096.21 1560.98 1121.32 1560.86 1121.36 1559.61 1131.25 1558.39 1140.95 1551.52 1195.22"/><path class="cls-1" d="M1767,1128.51c10.46,1.94,21.78-2.22,29.62-12.09l105.53-111.3a42.4,42.4,0,0,0-63.3-56.42l-88.3,121.4c-11.93,15-11.29,37.55,1.44,50.34A28.52,28.52,0,0,0,1767,1128.51Z"/><path class="cls-1" d="M1813.26,1177.65a14.83,14.83,0,0,1-10.66-4.5l-50-51.34a14.88,14.88,0,1,1,21.32-20.75l50,51.34a14.88,14.88,0,0,1-10.66,25.25Z"/><path class="cls-1" d="M1817.11,1148.27a14.89,14.89,0,0,1-12.9-7.44l-25.37-43.92a14.88,14.88,0,0,1,25.77-14.88l25.37,43.91a14.89,14.89,0,0,1-12.87,22.33Z"/><path class="cls-1" d="M1649.38,753l.08,16.62.11,26.06,0,9,0,3.76v.06l0,8.22.08,17.93a27.61,27.61,0,1,0,55.22-.24l-.11-22.9-.08-18.54-.14-30.37-.05-9.81a27.15,27.15,0,0,0-.93-7,27.49,27.49,0,0,0-23.25-20.29,28,28,0,0,0-3.55-.21A27.6,27.6,0,0,0,1649.38,753Z"/><path class="cls-2" d="M1649.38,753l.08,16.62.11,26.06,0,9,0,3.76v.06l0,8.22a55.72,55.72,0,0,0,45.79-34.29l2.49-6.1a44.76,44.76,0,0,0-9.59-48.59,27.59,27.59,0,0,0-7.95-2.22,28,28,0,0,0-3.55-.21A27.6,27.6,0,0,0,1649.38,753Z"/><path class="cls-1" d="M1633.43,799.87h0a34.06,34.06,0,0,1-18.59-44.44l10.72-26.13a44.88,44.88,0,0,1,58.56-24.5h0a44.89,44.89,0,0,1,24.5,58.56l-2.5,6.1A55.72,55.72,0,0,1,1633.43,799.87Z"/><path class="cls-1" d="M1627.33,729.91c-6.56,10.88-13.22,21-20.54,26.27a4.75,4.75,0,0,0-1.53,6.21,4.69,4.69,0,0,0,4,2.31l19.55.5Z"/><path class="cls-2" d="M1676.51,768.46s14.66-29.78-5.53-30.79c-47.88-2.39-51-23.9-51-23.91-.21-.14,5.75-7.15,6.1-7.53A75.47,75.47,0,0,1,1643.45,692c24.24-14.07,56.27-5.6,74.45,14.49,20.17,22.29,15.77,44.19,6.66,59.16a27.3,27.3,0,0,1-36.83,9.22Z"/><path class="cls-2" d="M1716.25,688.54c-1.56-5.31-3.85-10.43-4.78-15.89a33,33,0,0,1,34.42-38.44c14.66.86,26.82,11.13,37.79,20.89,8.69-11.18,20.61-20.12,34.27-23.82,20.46-5.54,54.11,3.39,51.63,30.08-.84,9.07-6,17.33-12.81,23.43-2.11,1.9-4.47,3.76-5.43,6.43-1.3,3.66.5,7.79,3.18,10.59s6.16,4.7,9.23,7.08a35.45,35.45,0,0,1-1,56.81c-4.71,3.38-10.34,5.64-13.9,10.36-10.63,14.12-6.17,34.42-19,48-8.69,9.24-22.71,12.15-35.12,9.53s-23.31-10.09-32.39-18.94c-9.83-9.59-18.22-21.86-18.68-35.59a36,36,0,0,1,15.5-30.4c5.35-3.62,12.46-6.86,13.1-13.29.55-5.62-4.86-10.43-10.45-11.23s-11.15,1.33-16.32,3.6c-14.76,6.47-29,14.46-44.66,18.28l3.78,1.31c-1.28,4.28-7.82,4.9-11,1.79s-3.6-8.17-2.73-12.55a28.66,28.66,0,0,1,8.45-15.25c5.56-5.22,13.4-8.42,16.77-15.27,2.55-5.17,1.92-11.34.36-16.89C1716.38,689,1716.31,688.76,1716.25,688.54Z"/><circle class="cls-1" cx="1685.3" cy="756.79" r="21.18" transform="translate(0.95 1515.7) rotate(-48.44)"/><path class="cls-2" d="M1734.63,737.08a2.92,2.92,0,0,1-2.48-1.37l-19.26-30.27a2.94,2.94,0,1,1,5-3.15l19.26,30.27a2.94,2.94,0,0,1-2.48,4.52Z"/><path class="cls-2" d="M1688.6,773.32l-.07,5.62Z"/><path class="cls-5" d="M1688.53,781.88h0a2.94,2.94,0,0,1-2.91-3l.07-5.63a2.94,2.94,0,0,1,2.94-2.9h0a2.94,2.94,0,0,1,2.91,3l-.07,5.62A2.94,2.94,0,0,1,1688.53,781.88Z"/><path class="cls-2" d="M1733.7,1057.11a2.89,2.89,0,0,1-.91-.15,2.94,2.94,0,0,1-1.89-3.71c3.3-10.09,1.78-18.18-4.79-25.46a2.94,2.94,0,0,1,4.37-3.94c8,8.88,10,19.09,6,31.23A3,3,0,0,1,1733.7,1057.11Z"/><path class="cls-2" d="M1634.72,1058.16a2.93,2.93,0,0,1-2.46-1.32c-6.57-10-7-20.38-1.22-31.78a2.94,2.94,0,1,1,5.25,2.65c-4.78,9.48-4.5,17.71.89,25.9a3,3,0,0,1-.84,4.07A2.92,2.92,0,0,1,1634.72,1058.16Z"/><rect class="cls-4" x="1641.07" y="821.8" width="73.43" height="40.26" transform="translate(3355.57 1683.85) rotate(180)"/><path class="cls-2" d="M1380.67,883.88a2.94,2.94,0,0,1-2.41-1.26c-4.51-6.43-5.18-14.88-1.9-23.81,3.15-8.55,9.62-16.58,18.21-22.6s18.34-9.38,27.45-9.44h.23c9.41,0,17,3.5,21.52,9.88A2.94,2.94,0,1,1,1439,840c-3.34-4.76-9.27-7.38-16.7-7.38h-.2c-7.92,0-16.48,3-24.1,8.36s-13.33,12.39-16.07,19.83c-2.6,7.06-2.17,13.59,1.2,18.39a3,3,0,0,1-2.41,4.64Z"/><path class="cls-1" d="M1511.88,1024.79a39.46,39.46,0,0,1-25.8-69.32l126.18-108.93a39.45,39.45,0,1,1,51.56,59.73L1537.65,1015.2A39.29,39.29,0,0,1,1511.88,1024.79Z"/><path class="cls-1" d="M1361.55,823.25c-4.13,9.8-2.48,21.75,5.48,31.52l103.68,156.7a42.4,42.4,0,1,0,68.63-49.8l-117.22-142c-12.12-14.85-34.27-19-49.49-9.34A28.49,28.49,0,0,0,1361.55,823.25Z"/><path class="cls-1" d="M1415.77,854.23a14.88,14.88,0,0,1-13.56-8.75l-33.81-74.73a14.88,14.88,0,0,1,27.11-12.27l33.81,74.74a14.87,14.87,0,0,1-13.55,21Z"/><path class="cls-1" d="M1400.22,849.86a14.87,14.87,0,0,1-12.48-6.77l-26.46-40.65a14.87,14.87,0,0,1,24.93-16.23l26.47,40.65a14.89,14.89,0,0,1-12.46,23Z"/><path class="cls-1" d="M1375.63,856.4a14.87,14.87,0,0,1-12.91-7.47l-17.39-30.3a14.87,14.87,0,1,1,25.8-14.81l17.39,30.3a14.87,14.87,0,0,1-12.89,22.28Z"/><path class="cls-1" d="M1422.66,853.21a15.08,15.08,0,0,1-4.51-.7,14.88,14.88,0,0,1-9.67-18.69l8.16-25.68a14.88,14.88,0,0,1,28.36,9l-8.17,25.68A14.87,14.87,0,0,1,1422.66,853.21Z"/><path class="cls-2" d="M1399.78,892.51c-9.41,0-17-3.51-21.52-9.89a2.94,2.94,0,0,1,4.82-3.38c3.34,4.77,9.27,7.38,16.7,7.38h.19c7.93,0,16.49-3,24.11-8.36s13.33-12.39,16.06-19.83c2.61-7.06,2.18-13.59-1.19-18.4a2.94,2.94,0,0,1,4.82-3.38c4.51,6.43,5.18,14.89,1.9,23.82-3.15,8.55-9.62,16.57-18.21,22.6s-18.34,9.38-27.45,9.44Z"/><path class="cls-5" d="M1424.79,870.34a12.62,12.62,0,1,0,13.68-11.47A12.62,12.62,0,0,0,1424.79,870.34Z"/><path class="cls-5" d="M1407.49,881.48A12.62,12.62,0,1,0,1421.17,870,12.62,12.62,0,0,0,1407.49,881.48Z"/><path class="cls-2" d="M1529.61,949.73a3,3,0,0,1-2.3-1.1l-13.79-17.14a2.94,2.94,0,0,1,4.58-3.69l13.8,17.14a3,3,0,0,1-.45,4.14A3,3,0,0,1,1529.61,949.73Z"/><polygon class="cls-1" points="1702.81 937.37 1734.64 905.13 1705.04 872.97 1682.8 906.07 1702.81 937.37"/><polygon class="cls-1" points="1702.81 937.37 1734.64 905.13 1705.04 872.97 1682.8 906.07 1702.81 937.37"/><path class="cls-5" d="M1702.81,940.31h-.3a2.94,2.94,0,0,1-2.17-1.34l-20-31.3a3,3,0,0,1,0-3.23l22.23-33.1a3,3,0,0,1,2.22-1.3,2.92,2.92,0,0,1,2.39,1l29.6,32.16a2.94,2.94,0,0,1-.07,4.05l-31.82,32.25A3,3,0,0,1,1702.81,940.31Zm-16.49-34.2,17,26.58,27.26-27.63-25.17-27.35Z"/><path class="cls-2" d="M1688.26,791.41l-.26,21.82Z"/><path class="cls-5" d="M1688,816.17h0a2.94,2.94,0,0,1-2.9-3l.26-21.82a3,3,0,0,1,2.94-2.91h0a3,3,0,0,1,2.9,3l-.26,21.82A2.94,2.94,0,0,1,1688,816.17Z"/><path class="cls-3" d="M1239.31,1196.1a26.51,26.51,0,0,1-.07-53l34.64-.09h.07a26.51,26.51,0,0,1,.07,53l-34.64.09Z"/><path class="cls-5" d="M1215.36,1196.16a26.51,26.51,0,0,1-.07-53l24-.07h.07a26.51,26.51,0,0,1,.07,53l-24,.06Z"/><path class="cls-4" d="M1215.36,1196.16h0l-354.81-.55a26.51,26.51,0,0,1,0-53h0l354.81.56a26.51,26.51,0,0,1,0,53Z"/><path class="cls-2" d="M860.55,1181.6h-24a12.51,12.51,0,0,1,0-25h24a12.5,12.5,0,0,1,0,25Z"/><circle class="cls-4" cx="466.99" cy="439.61" r="98.49" transform="translate(-174.07 458.97) rotate(-45)"/><path class="cls-2" d="M422.61,540.33h-.18a102.62,102.62,0,0,1-12.26-1.66,2.5,2.5,0,0,1,1-4.91,96.62,96.62,0,0,0,11.64,1.58,2.5,2.5,0,0,1-.18,5Zm24.05-1.14a2.5,2.5,0,0,1-.42-5,97.39,97.39,0,0,0,11.44-2.68,2.5,2.5,0,1,1,1.44,4.78,98.82,98.82,0,0,1-12,2.83A2,2,0,0,1,446.66,539.19Zm-58.87-8.06a2.42,2.42,0,0,1-1.07-.24,101.09,101.09,0,0,1-10.83-6,2.5,2.5,0,1,1,2.68-4.22,96.48,96.48,0,0,0,10.3,5.69,2.5,2.5,0,0,1-1.08,4.75Zm92.64-4.42a2.5,2.5,0,0,1-1.28-4.65,96.57,96.57,0,0,0,9.7-6.63,2.5,2.5,0,0,1,3.07,3.94,99.49,99.49,0,0,1-10.21,7A2.48,2.48,0,0,1,480.43,526.71ZM358.63,510a2.48,2.48,0,0,1-1.81-.78,102.53,102.53,0,0,1-8-9.45,2.5,2.5,0,0,1,4-3,97.14,97.14,0,0,0,7.57,9,2.49,2.49,0,0,1-1.81,4.22Zm148.82-7.09a2.51,2.51,0,0,1-2-4.05,97.16,97.16,0,0,0,6.68-9.67,2.5,2.5,0,1,1,4.28,2.59,101,101,0,0,1-7,10.17A2.51,2.51,0,0,1,507.45,502.92ZM339,479.86a2.5,2.5,0,0,1-2.31-1.55,98.36,98.36,0,0,1-4-11.69,2.5,2.5,0,1,1,4.81-1.33,99.11,99.11,0,0,0,3.83,11.11,2.49,2.49,0,0,1-1.35,3.26A2.45,2.45,0,0,1,339,479.86ZM524.15,471a2.31,2.31,0,0,1-.73-.11,2.49,2.49,0,0,1-1.66-3.12,95,95,0,0,0,2.74-11.43,2.5,2.5,0,0,1,4.93.87,100.61,100.61,0,0,1-2.89,12A2.5,2.5,0,0,1,524.15,471ZM331.51,444.64A2.49,2.49,0,0,1,329,442.2c0-.86,0-1.73,0-2.59,0-3.26.16-6.54.47-9.76a2.5,2.5,0,0,1,5,.47c-.3,3.07-.45,6.19-.45,9.29q0,1.23,0,2.46a2.5,2.5,0,0,1-2.43,2.57Zm196.71-9.4a2.5,2.5,0,0,1-2.49-2.33,96.83,96.83,0,0,0-1.52-11.66,2.5,2.5,0,0,1,4.91-.95,104.76,104.76,0,0,1,1.6,12.27,2.5,2.5,0,0,1-2.33,2.66ZM337.16,409.07a2.51,2.51,0,0,1-2.35-3.34,100.8,100.8,0,0,1,4.86-11.38,2.5,2.5,0,0,1,4.47,2.24,95.31,95.31,0,0,0-4.62,10.82A2.51,2.51,0,0,1,337.16,409.07Zm182.05-8.69a2.51,2.51,0,0,1-2.27-1.44,94.56,94.56,0,0,0-5.63-10.32,2.5,2.5,0,1,1,4.24-2.66,101,101,0,0,1,5.92,10.86,2.5,2.5,0,0,1-2.26,3.56Zm-164-22.45a2.46,2.46,0,0,1-1.63-.6,2.5,2.5,0,0,1-.27-3.53,103,103,0,0,1,8.62-8.86,2.5,2.5,0,0,1,3.37,3.69,98.84,98.84,0,0,0-8.2,8.43A2.46,2.46,0,0,1,355.26,377.93Zm28-22.57a2.5,2.5,0,0,1-1.19-4.7,101.68,101.68,0,0,1,11.22-5.19,2.5,2.5,0,1,1,1.82,4.66,95.23,95.23,0,0,0-10.66,4.93A2.56,2.56,0,0,1,383.3,355.36Zm81.75-5.31a2.5,2.5,0,0,1-.89-.16,94,94,0,0,0-11.22-3.51,2.5,2.5,0,1,1,1.19-4.85,101.52,101.52,0,0,1,11.81,3.68,2.5,2.5,0,0,1-.89,4.84Zm-47.47-5.66a2.5,2.5,0,0,1-.31-5,103.37,103.37,0,0,1,12.34-.79h0a2.5,2.5,0,1,1,0,5,97.48,97.48,0,0,0-11.73.75A1.62,1.62,0,0,1,417.58,344.39Z"/><path class="cls-7" d="M426,475.62a5.83,5.83,0,0,1-4.74-6.52l11.1-81.42A9.4,9.4,0,1,1,450.85,391l-18.13,80.15A5.82,5.82,0,0,1,426,475.62Zm-5.46,30.44a7.52,7.52,0,0,1-6.06-8.74l.08-.45a7.52,7.52,0,1,1,14.8,2.68l-.08.45A7.52,7.52,0,0,1,420.54,506.06Z"/><circle class="cls-4" cx="1409.09" cy="210.72" r="98.49" transform="translate(263.71 1058.1) rotate(-45)"/><path class="cls-2" d="M1364.71,311.44h-.18a102.64,102.64,0,0,1-12.26-1.67,2.5,2.5,0,1,1,1-4.9,96.62,96.62,0,0,0,11.64,1.58,2.5,2.5,0,0,1-.18,5Zm24-1.14a2.5,2.5,0,0,1-.42-5,95.46,95.46,0,0,0,11.44-2.69,2.5,2.5,0,0,1,1.44,4.79,98.82,98.82,0,0,1-12,2.83A3,3,0,0,1,1388.76,310.3Zm-58.87-8.05a2.56,2.56,0,0,1-1.07-.24,102.87,102.87,0,0,1-10.83-6,2.5,2.5,0,1,1,2.68-4.22,94.67,94.67,0,0,0,10.3,5.68,2.5,2.5,0,0,1-1.08,4.76Zm92.64-4.43a2.49,2.49,0,0,1-1.28-4.64,97.82,97.82,0,0,0,9.7-6.64,2.5,2.5,0,0,1,3.07,3.95,104,104,0,0,1-10.21,7A2.47,2.47,0,0,1,1422.53,297.82Zm-121.8-16.69a2.48,2.48,0,0,1-1.81-.78,99.59,99.59,0,0,1-8-9.46,2.5,2.5,0,0,1,4-3,96.76,96.76,0,0,0,7.57,9,2.51,2.51,0,0,1-.09,3.54A2.48,2.48,0,0,1,1300.73,281.13Zm148.82-7.1a2.49,2.49,0,0,1-2-4,96.74,96.74,0,0,0,6.69-9.67,2.5,2.5,0,1,1,4.28,2.58,101.27,101.27,0,0,1-7,10.18A2.47,2.47,0,0,1,1449.55,274ZM1281.08,251a2.5,2.5,0,0,1-2.31-1.54,100.24,100.24,0,0,1-4-11.69,2.5,2.5,0,0,1,4.82-1.34,97.75,97.75,0,0,0,3.83,11.11,2.5,2.5,0,0,1-1.35,3.27A2.44,2.44,0,0,1,1281.08,251Zm185.17-8.84a2.64,2.64,0,0,1-.73-.11,2.5,2.5,0,0,1-1.66-3.12,95.49,95.49,0,0,0,2.74-11.43,2.5,2.5,0,0,1,4.93.86,102.74,102.74,0,0,1-2.89,12A2.5,2.5,0,0,1,1466.25,242.13Zm-192.64-26.38a2.5,2.5,0,0,1-2.5-2.43c0-.86,0-1.73,0-2.59,0-3.26.16-6.54.47-9.77a2.5,2.5,0,1,1,5,.48c-.29,3.07-.44,6.19-.44,9.29q0,1.23,0,2.46a2.49,2.49,0,0,1-2.43,2.56Zm196.71-9.39a2.5,2.5,0,0,1-2.49-2.33,96.83,96.83,0,0,0-1.52-11.66,2.5,2.5,0,1,1,4.9-1,102.53,102.53,0,0,1,1.61,12.26,2.51,2.51,0,0,1-2.33,2.67Zm-191.06-26.17a2.51,2.51,0,0,1-2.36-3.34,102.66,102.66,0,0,1,4.86-11.38,2.5,2.5,0,0,1,4.47,2.24,97.15,97.15,0,0,0-4.62,10.82A2.49,2.49,0,0,1,1279.26,180.19Zm182-8.69a2.51,2.51,0,0,1-2.27-1.44,94.56,94.56,0,0,0-5.63-10.32,2.5,2.5,0,1,1,4.24-2.66,101.84,101.84,0,0,1,5.92,10.86,2.49,2.49,0,0,1-1.2,3.32A2.55,2.55,0,0,1,1461.31,171.5Zm-164-22.45a2.5,2.5,0,0,1-1.89-4.13,103.08,103.08,0,0,1,8.62-8.87,2.5,2.5,0,1,1,3.36,3.7,97.27,97.27,0,0,0-8.19,8.43A2.47,2.47,0,0,1,1297.35,149.05Zm28.05-22.57a2.51,2.51,0,0,1-1.19-4.71,101.61,101.61,0,0,1,11.22-5.18,2.5,2.5,0,1,1,1.82,4.66,94.42,94.42,0,0,0-10.67,4.93A2.49,2.49,0,0,1,1325.4,126.48Zm81.75-5.31a2.51,2.51,0,0,1-.89-.17,95.42,95.42,0,0,0-11.23-3.5,2.5,2.5,0,0,1,1.19-4.86,101.13,101.13,0,0,1,11.82,3.69,2.5,2.5,0,0,1-.89,4.84Zm-47.48-5.66a2.5,2.5,0,0,1-.3-5,101.29,101.29,0,0,1,12.33-.79h0a2.5,2.5,0,0,1,0,5,95.47,95.47,0,0,0-11.73.75Z"/><path class="cls-2" d="M1413.34,249.14a5.51,5.51,0,0,1-3.81-1.53l-68.76-65.83a5.5,5.5,0,0,1,7.6-7.95l68.77,65.84a5.5,5.5,0,0,1-3.8,9.47Z"/><path class="cls-2" d="M1346,250.61a5.5,5.5,0,0,1-4-9.3l65.84-68.77a5.5,5.5,0,1,1,7.94,7.6L1350,248.91A5.49,5.49,0,0,1,1346,250.61Z"/><path class="cls-2" d="M687.11,1197.25H687a2.49,2.49,0,0,1-2.38-2.61c4.53-103.59,13.54-177.17,26-212.76a2.5,2.5,0,1,1,4.72,1.66c-12.35,35.13-21.26,108.21-25.78,211.32A2.51,2.51,0,0,1,687.11,1197.25Z"/><path class="cls-2" d="M678.72,1198.59l-.35,0a2.5,2.5,0,0,1-2.13-2.82c2.34-16.86-19.41-86.43-35.3-97.79a2.5,2.5,0,0,1,2.91-4.07c11.28,8.07,22.12,37.2,26.26,49.35,6.53,19.18,12.49,43.07,11.08,53.2A2.5,2.5,0,0,1,678.72,1198.59Z"/><path class="cls-3" d="M712.65,1023.35c-2.58,11.06-9.28,18.95-15,17.62s-8.2-11.36-5.62-22.42c1.79-7.65,8.26-13.15,12.09-15.82a3.22,3.22,0,0,1,4.66,1.09C711.06,1007.9,714.44,1015.7,712.65,1023.35Z"/><path class="cls-1" d="M752.94,991.74c2.76-5.14.38-10.43-5.31-11.76h0a14.69,14.69,0,0,0-15.36,6.94l-18.85,35a11.49,11.49,0,0,1-12.74,5.75h0a11.49,11.49,0,0,1-8.88-10.79l-1.4-39.74a14.68,14.68,0,0,0-10.71-13h0a10.24,10.24,0,0,0-9.87,10.6s1.77,52.47,1.88,53.52l.06.49a21.45,21.45,0,0,0,16.37,18l15.32,3.57a21.43,21.43,0,0,0,22.66-8.91l.07,0Z"/><path class="cls-4" d="M626.17,1062.71h0L638.35,1039a9.13,9.13,0,0,0-6.8-13.2h0a9.13,9.13,0,0,0-10.29,10.71Z"/><path class="cls-4" d="M615.71,1070.51h0l-26.22,4.91a9.13,9.13,0,0,1-10.71-10.29h0a9.13,9.13,0,0,1,13.2-6.8Z"/><path class="cls-4" d="M623.18,1080.53h0L611,1104.26a9.13,9.13,0,0,0,6.8,13.2h0a9.13,9.13,0,0,0,10.29-10.71Z"/><path class="cls-4" d="M633.64,1072.73h0l26.22-4.91a9.13,9.13,0,0,1,10.71,10.28h0a9.13,9.13,0,0,1-13.2,6.81Z"/><path class="cls-4" d="M619.43,1064.26h0l-8.17-25.39a9.12,9.12,0,0,0-14.14-4.52h0a9.12,9.12,0,0,0,.3,14.84Z"/><path class="cls-4" d="M617.55,1077.18h0l-15.07,22a9.13,9.13,0,0,1-14.84.3h0a9.13,9.13,0,0,1,4.52-14.15Z"/><path class="cls-4" d="M629.92,1079h0l8.17,25.39a9.12,9.12,0,0,0,14.14,4.52h0a9.12,9.12,0,0,0-.3-14.84Z"/><path class="cls-4" d="M631.8,1066.06h0l15.07-22a9.12,9.12,0,0,1,14.84-.3h0a9.12,9.12,0,0,1-4.52,14.14Z"/><path class="cls-2" d="M1342.54,1200.77H620.6a2.72,2.72,0,1,1,0-5.44h721.94a2.72,2.72,0,1,1,0,5.44Z"/><polygon class="cls-3" points="1600 170.74 1606.19 182.41 1617.49 188.8 1606.19 195.19 1600 206.87 1593.82 195.19 1582.51 188.8 1593.82 182.41 1600 170.74"/><polygon class="cls-1" points="250.53 331.21 256.72 342.89 268.03 349.28 256.72 355.66 250.53 367.34 244.35 355.66 233.04 349.28 244.35 342.89 250.53 331.21"/><polygon class="cls-4" points="1154.37 1062.46 1160.56 1074.14 1171.86 1080.53 1160.56 1086.92 1154.37 1098.6 1148.19 1086.92 1136.88 1080.53 1148.19 1074.14 1154.37 1062.46"/></g></g></svg>