<svg xmlns="http://www.w3.org/2000/svg" xmlns:xlink="http://www.w3.org/1999/xlink" viewBox="0 0 102.24 126.92"><defs><style>.cls-1{fill:url(#linear-gradient);}.cls-2{fill:url(#linear-gradient-2);}.cls-3{fill:url(#linear-gradient-3);}</style><linearGradient id="linear-gradient" x1="-10.32" y1="-21.78" x2="150.29" y2="138.83" gradientUnits="userSpaceOnUse"><stop offset="0" stop-color="#8f63f2"/><stop offset="1" stop-color="#30c7cf"/></linearGradient><linearGradient id="linear-gradient-2" x1="-31.12" y1="-0.98" x2="129.49" y2="159.63" xlink:href="#linear-gradient"/><linearGradient id="linear-gradient-3" x1="-30.76" y1="-1.34" x2="129.85" y2="159.27" xlink:href="#linear-gradient"/></defs><g id="Capa_2" data-name="Capa 2"><g id="Object"><path class="cls-1" d="M59.73,52.73a32.8,32.8,0,0,1,3.59.21,19.82,19.82,0,0,0,4.49-10.25,42.25,42.25,0,0,0-8.08-.78H49.49a14.76,14.76,0,0,1,1,5.41v5.41Z"/><path class="cls-2" d="M91.41,84.42A31.73,31.73,0,0,1,59.73,116.1H39.51V89.88c0-.08,0-.15,0-.23H35.76A14.6,14.6,0,0,1,29,88a5.31,5.31,0,0,0-.35,1.87v31.63a5.44,5.44,0,0,0,5.41,5.41H59.73A42.48,42.48,0,0,0,93.79,59a49.63,49.63,0,0,1-6,10.65A31.5,31.5,0,0,1,91.41,84.42Z"/><path class="cls-3" d="M5.41,126.64a5.41,5.41,0,0,0,5.41-5.41V11.07L29.37,11,48,10.83A29.34,29.34,0,0,1,77,35.51a29.18,29.18,0,0,1-.13,10h0a29,29,0,0,1-3.24,8.94c-.22.4-.45.78-.69,1.16h0a29.76,29.76,0,0,1-6.64,7.46,29.27,29.27,0,0,1-13.79,6c-.48.07-1,.14-1.46.19a29.83,29.83,0,0,1-3,.15H41.17V47.32A5.35,5.35,0,0,0,36,41.93l-.26,0h0a5.44,5.44,0,0,0-5.41,5.41h0V74.88a5.69,5.69,0,0,0,.07.71,5.43,5.43,0,0,0,5.34,4.7H48a39.89,39.89,0,0,0,15.78-3.23c1-.41,1.88-.86,2.79-1.33l1.27-.7A40.23,40.23,0,0,0,86.54,51.46a39.63,39.63,0,0,0,1.61-10.39c0-.31,0-.61,0-.92A40.21,40.21,0,0,0,48,0L13.72.23,5.38.28a5.35,5.35,0,0,0-.7.08A5.3,5.3,0,0,0,2,1.52,5.36,5.36,0,0,0,0,5.7V121.23A5.41,5.41,0,0,0,5.41,126.64Z"/></g></g></svg>