<svg xmlns="http://www.w3.org/2000/svg" viewBox="0 0 295.3 295.29"><defs><style>.cls-1{fill:#e94b4f;}.cls-1,.cls-2{stroke:#fff;stroke-miterlimit:10;}.cls-2{fill:none;stroke-width:5px;}.cls-3{fill:#f0ca61;}.cls-4{fill:#2d2d2d;}.cls-5{fill:#725340;}.cls-6{fill:#ec656e;}</style></defs><g id="Capa_2" data-name="Capa 2"><g id="Capa_1-2" data-name="Capa 1"><polygon class="cls-1" points="86.69 294.79 0.5 208.6 0.5 86.69 86.69 0.5 208.6 0.5 294.8 86.69 294.8 208.6 208.6 294.79 86.69 294.79"/><polygon class="cls-2" points="93.47 277.15 18.14 201.29 18.14 94 93.47 18.14 200 18.14 275.32 94 275.32 201.29 200 277.15 93.47 277.15"/><rect class="cls-3" x="83.63" y="74.26" width="24.37" height="106.23" rx="6.5"/><path class="cls-3" d="M201.64,181c4.2,6.89-9.08,33.1-11,39.58-10.58,35.23-48,36.58-75,29.9-30.87-7.63-31-39.48-32-66.11-.14-3.67-1.54-29.06,1.29-31.74l20.94-19.88,40.63-9.39,25.16,3.28s10.64,15.47,10.64,15.93,6.77,17.81,6.77,17.81S201.64,181,201.64,181Z"/><ellipse class="cls-3" cx="95.8" cy="82.34" rx="12.16" ry="17.11"/><rect class="cls-3" x="112.28" y="56.24" width="24.37" height="106.23" rx="6.5"/><ellipse class="cls-3" cx="124.45" cy="64.32" rx="12.16" ry="17.11"/><rect class="cls-3" x="139.08" y="47.23" width="24.37" height="106.23" rx="6.5"/><ellipse class="cls-3" cx="151.25" cy="55.31" rx="12.16" ry="17.11"/><rect class="cls-3" x="167.41" y="59.45" width="24.37" height="106.23" rx="6.5"/><ellipse class="cls-3" cx="179.57" cy="67.53" rx="12.16" ry="17.11"/><rect class="cls-3" x="181.12" y="130.67" width="25.1" height="106.23" rx="6.5" transform="translate(93.43 -63.68) rotate(24.45)"/><ellipse class="cls-3" cx="212.29" cy="142.78" rx="17.11" ry="12.53" transform="translate(-5.55 276.94) rotate(-65.55)"/><rect class="cls-4" x="107.22" y="146.23" width="5.65" height="25.48" transform="translate(-80.18 124.37) rotate(-45)"/><rect class="cls-4" x="107.22" y="146.23" width="5.65" height="25.48" transform="translate(144.64 -31.25) rotate(45)"/><rect class="cls-4" x="165.29" y="146.23" width="5.65" height="25.48" transform="translate(-63.17 165.44) rotate(-45)"/><rect class="cls-4" x="165.29" y="146.23" width="5.65" height="25.48" transform="translate(161.65 -72.32) rotate(45)"/><ellipse class="cls-5" cx="139.24" cy="206.58" rx="15.39" ry="26.09"/><path class="cls-6" d="M152.24,220.57c-11.23-6.17-20.38-2.67-25.66.83,2.77,6.81,7.41,11.28,12.66,11.28C144.71,232.68,149.51,227.84,152.24,220.57Z"/></g></g></svg>